<svg xmlns="http://www.w3.org/2000/svg" viewBox="0 0 100 100" fill-rule="evenodd"><g class="t-group-origins"><path d="M80.113 14.231H60.757v-3.576a1.5 1.5 0 0 0-1.5-1.5H40.743a1.5 1.5 0 0 0-1.5 1.5v3.576H19.887a1.5 1.5 0 0 0-1.5 1.5v73.616a1.5 1.5 0 0 0 1.5 1.5h60.227a1.5 1.5 0 0 0 1.5-1.5V15.731a1.501 1.501 0 0 0-1.501-1.5zm-37.87-2.076h15.514v6.05H42.243v-6.05zm36.37 75.692H21.387V17.231h17.856v2.474a1.5 1.5 0 0 0 1.5 1.5h18.514a1.5 1.5 0 0 0 1.5-1.5v-2.474h17.856v70.616z" stroke-width="0" stroke="#ffffff" fill="#ffffff" stroke-width-old="0"></path><path d="M32.601 37.352h-5.796a1.5 1.5 0 1 0 0 3h5.796a1.5 1.5 0 1 0 0-3zm5.641 1.5a1.5 1.5 0 0 0 1.5 1.5h33.453a1.5 1.5 0 1 0 0-3H39.742a1.5 1.5 0 0 0-1.5 1.5zm-5.641 11.89h-5.796a1.5 1.5 0 1 0 0 3h5.796a1.5 1.5 0 1 0 0-3zm40.594 0H39.742a1.5 1.5 0 1 0 0 3h33.453a1.5 1.5 0 0 0 0-3zM32.601 64.125h-5.796a1.5 1.5 0 1 0 0 3h5.796a1.5 1.5 0 1 0 0-3zm40.594 0H39.742a1.5 1.5 0 1 0 0 3h33.453a1.5 1.5 0 0 0 0-3z" stroke-width="0" stroke="#ffffff" fill="#ffffff" stroke-width-old="0"></path></g></svg>
