<svg xmlns="http://www.w3.org/2000/svg" viewBox="0 0 24 24" fill="none">
  <circle cx="12" cy="12" r="9" fill="#E60023"/>
  <path d="M12.3 6.7c-2.8 0-4.6 2-4.6 4.3 0 1.6.9 2.9 2.2 2.9.4 0 .8-.3.9-.7.1-.2.2-.8.3-1.1.1-.3 0-.4-.2-.7-.4-.5-.6-1.1-.6-2 0-1.5 1.1-2.9 3.1-2.9 1.7 0 2.7 1.1 2.7 2.5 0 1.9-.9 3.4-2.1 3.4-.7 0-1.2-.6-1.1-1.3.2-.8.6-1.6.6-2.1 0-.5-.3-.9-.8-.9-.6 0-1.1.6-1.1 1.4 0 .5.2.9.2.9l-.8 3.2c-.2.8 0 2 .1 2.6h.2c.3-.6.7-1.7.8-2.5l.3-1.1c.2.3.8.5 1.4.5 1.9 0 3.4-1.8 3.4-4.3 0-2.2-1.8-3.8-4.1-3.8z" fill="#fff"/>
</svg>
